<?xml version="1.0" standalone="no"?>
<!DOCTYPE svg PUBLIC "-//W3C//DTD SVG 20010904//EN"
 "http://www.w3.org/TR/2001/REC-SVG-20010904/DTD/svg10.dtd">
<svg version="1.0" xmlns="http://www.w3.org/2000/svg"
 width="1544.000000pt" height="1544.000000pt" viewBox="0 0 1544.000000 1544.000000"
 preserveAspectRatio="xMidYMid meet">
<metadata>
Created by potrace 1.14, written by Peter Selinger 2001-2017
</metadata>
<g transform="translate(0.000000,1544.000000) scale(0.100000,-0.100000)"
fill="#000000" stroke="none">
<path d="M12389 10666 c-2 -2 -35 -7 -74 -10 -68 -6 -200 -24 -240 -32 -11 -3
-36 -7 -55 -10 -61 -10 -311 -74 -334 -86 -11 -6 -21 -10 -21 -9 0 1 -13 -2
-28 -8 -16 -6 -31 -11 -35 -11 -14 0 -217 -85 -220 -92 -2 -5 -8 -8 -14 -8
-11 0 -190 -89 -198 -99 -3 -3 -25 -17 -50 -30 -175 -95 -479 -354 -625 -532
-27 -34 -60 -73 -73 -88 -28 -32 -180 -258 -216 -321 -44 -77 -136 -265 -136
-278 0 -7 -5 -12 -10 -12 -6 0 -9 -3 -8 -7 1 -8 -3 -21 -22 -68 -7 -18 -16
-41 -51 -135 -8 -19 -14 -37 -14 -40 -1 -3 -9 -32 -19 -65 -20 -63 -54 -186
-61 -220 -8 -37 -15 -70 -20 -95 -3 -14 -7 -36 -10 -50 -5 -25 -13 -72 -19
-120 -2 -14 -7 -45 -11 -70 -30 -194 -36 -639 -11 -825 2 -16 7 -59 11 -95 4
-36 9 -74 12 -85 2 -11 6 -33 8 -50 3 -16 7 -41 10 -55 3 -14 8 -41 11 -60 3
-19 9 -46 14 -60 4 -14 13 -50 20 -80 7 -30 21 -83 32 -118 11 -34 21 -69 22
-77 1 -8 5 -18 9 -21 4 -4 7 -17 7 -29 0 -11 4 -25 8 -30 5 -6 19 -39 31 -75
13 -36 27 -69 32 -75 5 -5 9 -15 9 -22 0 -17 117 -254 166 -336 33 -56 146
-227 166 -252 5 -5 18 -21 29 -35 12 -14 28 -36 37 -48 20 -31 98 -116 193
-211 163 -164 348 -304 549 -414 30 -16 63 -37 74 -46 10 -9 19 -15 20 -13 0
2 33 -11 71 -29 39 -18 75 -33 80 -34 6 -2 30 -12 55 -23 50 -24 249 -91 288
-98 14 -3 33 -9 44 -15 10 -5 18 -7 18 -3 0 3 6 1 13 -5 8 -6 16 -9 18 -6 3 2
29 -2 59 -10 30 -8 73 -17 95 -20 22 -3 51 -8 65 -11 14 -3 34 -7 45 -9 172
-35 703 -41 888 -10 12 2 42 6 67 9 25 3 70 10 100 16 30 6 66 13 80 16 22 4
67 15 265 67 22 6 43 14 46 20 3 5 10 8 15 8 10 -1 69 16 99 29 199 84 258
113 418 204 62 35 201 133 291 204 83 65 305 285 362 357 21 28 42 52 45 55 9
8 119 159 119 164 0 3 56 92 78 122 22 31 157 296 178 350 73 185 107 286 140
409 11 40 57 246 60 270 3 17 7 39 9 50 2 11 6 45 10 75 3 30 8 66 10 80 14
79 20 212 19 420 0 212 -4 300 -18 425 -6 44 -42 265 -50 305 -3 14 -8 34 -10
45 -54 263 -229 703 -351 883 -14 20 -25 42 -25 49 0 7 -3 13 -8 13 -4 0 -16
16 -26 35 -11 19 -23 35 -28 35 -4 0 -8 6 -8 13 0 7 -9 23 -20 35 -11 12 -20
24 -20 27 0 4 -6 13 -12 20 -7 8 -18 20 -23 27 -147 186 -275 318 -435 448
-30 25 -61 51 -68 58 -7 6 -17 12 -20 12 -4 0 -19 10 -33 23 -14 12 -34 27
-45 34 -10 7 -66 41 -124 76 -105 65 -286 157 -308 157 -7 0 -12 5 -12 10 0 6
-5 10 -11 10 -6 0 -59 18 -118 40 -130 48 -320 103 -396 115 -16 2 -41 7 -55
10 -14 3 -41 8 -60 11 -19 3 -46 7 -60 10 -34 5 -96 14 -150 20 -55 6 -546 15
-551 10z m451 -1011 c41 -4 84 -9 95 -11 10 -2 35 -6 55 -9 82 -12 199 -44
305 -83 369 -137 677 -415 868 -785 36 -68 89 -187 93 -207 0 -3 4 -12 7 -20
16 -37 29 -77 33 -98 3 -13 11 -42 19 -65 8 -23 16 -53 19 -67 2 -14 9 -46 15
-73 6 -26 14 -64 17 -85 3 -20 7 -44 9 -52 10 -36 26 -253 25 -332 0 -61 0
-69 1 -120 1 -82 -13 -241 -33 -353 -5 -33 -11 -69 -13 -80 -13 -90 -88 -338
-130 -430 -14 -30 -25 -59 -25 -64 0 -6 -5 -11 -12 -11 -6 0 -9 -3 -6 -6 14
-13 -139 -257 -226 -359 -107 -127 -296 -288 -391 -335 -16 -8 -39 -23 -49
-32 -11 -10 -23 -18 -28 -18 -4 0 -38 -15 -75 -33 -109 -52 -312 -116 -420
-132 -23 -3 -57 -8 -75 -11 -114 -17 -364 -23 -463 -11 -27 3 -75 9 -105 12
-30 4 -68 10 -85 15 -16 5 -43 11 -60 14 -130 22 -304 91 -460 180 -38 22 -71
44 -73 48 -2 5 -8 8 -14 8 -35 0 -283 230 -366 340 -23 30 -45 60 -50 65 -69
89 -179 310 -232 468 -59 175 -83 270 -96 382 -3 22 -7 50 -9 62 -26 122 -25
509 2 703 3 25 6 55 7 68 0 12 5 22 9 22 5 0 6 4 3 8 -3 5 2 37 10 72 8 36 17
74 19 85 2 11 4 21 6 23 1 1 2 5 3 10 40 150 152 431 177 440 5 2 9 9 9 15 0
14 71 131 82 135 4 2 8 8 8 13 0 6 4 15 10 22 207 262 358 389 607 512 51 25
97 45 103 45 6 0 18 4 28 9 67 37 306 92 466 107 33 3 62 7 63 8 5 4 259 -2
323 -9z"/>
<path d="M10 10093 l0 -503 935 0 934 0 3 -281 c2 -154 0 -283 -5 -286 -4 -2
-5 -8 -2 -13 5 -8 9 -220 5 -245 -1 -5 -1 -25 0 -43 5 -99 4 -172 -3 -172 -5
0 -6 -4 -3 -9 5 -8 10 -136 6 -156 -1 -5 -2 -14 -1 -18 2 -12 2 -230 1 -242
-1 -5 -1 -25 0 -43 5 -99 4 -172 -3 -172 -5 0 -5 -4 -2 -10 5 -8 6 -109 4
-280 0 -8 0 -53 1 -100 1 -47 0 -89 -1 -95 -1 -5 -1 -14 0 -18 2 -12 2 -231 0
-242 -1 -5 -1 -14 0 -18 2 -13 3 -191 0 -202 -1 -5 -1 -14 0 -19 1 -7 1 -127
0 -268 0 -10 0 -83 0 -163 0 -80 0 -151 0 -157 0 -7 0 -51 1 -98 1 -47 0 -89
-1 -95 -1 -5 -1 -14 0 -18 2 -12 2 -231 0 -242 -1 -5 -1 -14 0 -18 2 -13 3
-191 0 -202 -1 -5 -1 -14 0 -19 1 -7 1 -186 0 -266 0 -8 0 -53 1 -100 1 -47 0
-89 -1 -95 -1 -5 -1 -14 0 -18 3 -20 3 -238 0 -242 -3 -2 -3 -24 -1 -49 4 -44
5 -46 36 -47 286 -5 1020 2 1025 9 3 6 6 1077 5 2381 l-1 2371 947 0 947 0 0
493 c0 270 -2 497 -6 502 -4 7 -766 11 -2413 10 l-2408 0 0 -502z"/>
<path d="M5101 10592 c-6 -2 9 -29 33 -60 23 -31 51 -72 62 -89 10 -18 21 -33
25 -33 4 0 9 -8 13 -17 3 -10 35 -58 71 -108 35 -49 88 -124 117 -165 28 -41
66 -95 83 -120 17 -25 63 -90 100 -145 38 -55 72 -102 76 -105 3 -3 12 -16 19
-29 7 -14 17 -30 22 -35 9 -11 129 -182 223 -318 28 -40 78 -113 113 -163 35
-49 80 -115 100 -145 20 -30 39 -57 42 -60 4 -3 35 -48 71 -100 101 -148 179
-260 221 -317 21 -29 38 -56 38 -62 0 -5 4 -11 8 -13 4 -1 43 -55 87 -118 43
-63 81 -117 84 -120 3 -3 24 -32 46 -65 22 -33 66 -97 97 -141 32 -45 58 -86
58 -93 0 -6 4 -11 8 -11 5 0 24 -24 42 -52 19 -29 38 -54 42 -56 4 -2 8 -10 8
-18 0 -8 4 -14 8 -14 12 0 54 -78 45 -82 -12 -5 -63 -75 -63 -86 0 -6 -4 -12
-8 -14 -5 -1 -40 -48 -77 -103 -64 -92 -195 -279 -245 -350 -25 -35 -274 -391
-292 -419 -7 -10 -32 -44 -54 -76 -23 -31 -47 -67 -54 -79 -6 -12 -18 -30 -26
-39 -7 -9 -56 -78 -108 -152 -52 -74 -99 -140 -105 -147 -6 -7 -11 -16 -11
-20 0 -4 -11 -21 -25 -38 -13 -16 -101 -140 -194 -275 -94 -135 -185 -266
-203 -291 -18 -26 -40 -56 -48 -69 -8 -12 -31 -44 -50 -70 -19 -27 -66 -95
-105 -151 -38 -56 -74 -107 -80 -113 -5 -7 -14 -19 -20 -28 -27 -45 -119 -173
-127 -176 -4 -2 -8 -8 -8 -13 0 -9 -64 -103 -110 -162 -12 -15 -20 -30 -17
-33 4 -5 999 -8 1253 -5 l42 1 98 147 c54 82 102 150 106 151 5 2 8 7 8 11 0
4 86 135 190 291 105 155 190 286 190 290 0 5 4 10 8 12 7 3 109 148 137 196
29 49 140 207 147 210 4 2 8 7 8 12 0 6 320 491 347 525 4 6 29 43 56 83 26
39 50 72 55 72 4 0 41 -52 82 -115 41 -63 78 -115 83 -115 4 0 7 -5 7 -10 0
-6 19 -38 43 -71 23 -33 47 -69 53 -80 6 -10 18 -27 27 -37 10 -10 17 -24 17
-30 0 -7 4 -12 8 -12 5 0 14 -10 21 -22 6 -13 19 -35 29 -49 9 -14 30 -46 46
-70 16 -24 32 -46 35 -49 3 -3 55 -79 115 -170 61 -91 114 -166 118 -168 4 -2
8 -8 8 -12 0 -10 166 -257 187 -278 7 -7 13 -19 13 -27 0 -7 4 -15 8 -17 4 -1
46 -59 92 -128 46 -69 99 -146 117 -172 18 -26 33 -50 33 -53 0 -3 11 -18 25
-33 14 -15 25 -31 25 -37 0 -6 13 -26 28 -45 16 -19 52 -72 81 -117 53 -82 54
-83 95 -84 51 0 1182 0 1253 1 l52 0 -57 80 c-31 45 -61 88 -67 97 -5 9 -15
24 -22 32 -10 13 -148 212 -203 291 -6 8 -35 50 -65 93 -30 42 -55 82 -55 87
0 6 -3 10 -7 10 -5 0 -24 25 -43 55 -19 30 -38 55 -42 55 -5 0 -8 6 -8 13 0 7
-8 22 -17 33 -26 29 -63 82 -63 90 0 4 -8 14 -18 23 -9 9 -23 28 -31 44 -8 15
-18 27 -23 27 -4 0 -8 7 -8 15 0 8 -3 15 -8 15 -4 0 -12 9 -17 19 -11 21 -124
187 -140 205 -5 6 -23 31 -40 56 -28 43 -141 204 -157 225 -5 6 -28 39 -53 75
-175 256 -209 306 -214 310 -13 11 -51 70 -51 79 0 5 -3 11 -8 13 -8 3 -192
264 -192 273 0 3 -8 14 -17 24 -28 31 -43 50 -43 55 0 4 -185 273 -208 301 -4
6 -43 62 -86 125 -44 63 -82 117 -85 120 -11 9 -11 30 -1 30 6 0 10 6 10 14 0
8 4 16 8 18 4 2 29 35 55 73 76 111 206 299 220 315 6 9 34 49 62 90 27 41 53
77 57 78 5 2 8 10 8 18 0 8 4 14 8 14 5 0 17 16 28 35 10 19 22 35 26 35 5 0
8 5 8 10 0 6 17 34 38 63 21 29 72 101 113 160 41 59 94 136 119 171 25 35 51
72 58 82 7 11 64 93 127 184 64 91 132 190 153 220 20 30 40 57 44 58 5 2 8
10 8 18 0 8 5 14 10 14 6 0 10 5 10 10 0 6 5 16 11 23 6 7 68 95 139 197 71
102 132 190 137 195 5 6 20 28 33 50 14 22 30 47 37 55 29 35 233 333 233 340
0 4 7 10 15 14 8 3 15 12 15 20 0 8 3 16 8 18 4 2 32 39 61 83 30 44 59 81 63
83 4 2 8 11 8 20 0 16 -48 17 -642 17 -354 0 -649 -4 -655 -8 -7 -4 -29 -34
-50 -65 -21 -31 -41 -58 -45 -60 -5 -2 -8 -7 -8 -12 0 -7 -391 -602 -417 -635
-4 -5 -46 -68 -93 -140 -47 -71 -87 -132 -90 -135 -4 -3 -21 -29 -38 -58 -18
-30 -42 -63 -52 -75 -11 -11 -20 -25 -20 -29 0 -11 -42 -72 -52 -76 -5 -2 -8
-7 -8 -11 0 -5 -79 -126 -175 -270 -96 -144 -175 -264 -175 -267 0 -8 -40 -48
-43 -43 -2 2 -55 81 -118 174 -62 94 -117 172 -121 173 -5 2 -8 7 -8 12 0 4
-67 108 -150 231 -181 270 -169 253 -201 298 -14 20 -28 43 -32 51 -4 8 -148
224 -321 480 l-313 465 -661 0 c-364 0 -666 -1 -671 -3z"/>
</g>
</svg>
