<svg width="94" height="33" viewBox="0 0 94 33" fill="none" xmlns="http://www.w3.org/2000/svg">
<g style="mix-blend-mode:difference">
<path d="M20.93 0.499998H24.665V32H20.345L3.92 5.9V32H0.185V0.499998H4.865L20.93 26.375V0.499998ZM51.9948 21.74H34.9848C35.1048 24.23 35.7948 26.105 37.0548 27.365C38.3448 28.595 40.0098 29.21 42.0498 29.21C43.4298 29.21 44.6598 28.895 45.7398 28.265C46.8198 27.605 47.5698 26.645 47.9898 25.385H51.5898C51.0798 27.755 49.9248 29.54 48.1248 30.74C46.3548 31.91 44.2848 32.495 41.9148 32.495C39.9348 32.495 38.1348 32.075 36.5148 31.235C34.9248 30.365 33.6498 29.06 32.6898 27.32C31.7598 25.55 31.2948 23.405 31.2948 20.885C31.2948 18.545 31.7298 16.475 32.5998 14.675C33.4998 12.845 34.7598 11.435 36.3798 10.445C37.9998 9.425 39.8748 8.915 42.0048 8.915C44.9748 8.915 47.3748 9.785 49.2048 11.525C51.0648 13.265 51.9948 15.935 51.9948 19.535V21.74ZM48.3498 18.725C48.3198 16.685 47.7948 15.095 46.7748 13.955C45.7848 12.785 44.2248 12.2 42.0948 12.2C40.1148 12.2 38.5248 12.8 37.3248 14C36.1248 15.17 35.3748 16.745 35.0748 18.725H48.3498ZM63.8241 20.345L55.5441 9.365H60.1791L66.1191 17.645L72.0591 9.365H76.5141L68.3241 20.39L77.0541 32H72.4191L65.9841 23.045L59.5491 32H55.0041L63.8241 20.345ZM93.0246 28.715V32H89.3796C87.5496 32 86.1246 31.595 85.1046 30.785C84.0846 29.945 83.5746 28.43 83.5746 26.24V12.605H79.2096V9.365H83.5746V3.155L87.2196 2.12V9.365H92.5296V12.605H87.2196V25.835C87.2196 26.855 87.4296 27.59 87.8496 28.04C88.2696 28.49 89.0196 28.715 90.0996 28.715H93.0246Z" fill="white"/>
</g>
</svg>
