<svg width="174" height="33" viewBox="0 0 174 33" fill="none" xmlns="http://www.w3.org/2000/svg">
<path d="M12.65 0.499998C14.72 0.499998 16.475 0.934999 17.915 1.805C19.355 2.645 20.435 3.77 21.155 5.18C21.875 6.56 22.235 8.06 22.235 9.68C22.235 11.42 21.845 13.04 21.065 14.54C20.285 16.01 19.13 17.195 17.6 18.095C16.07 18.965 14.24 19.4 12.11 19.4H4.01V32H0.185V0.499998H12.65ZM4.01 4.01V15.935H11.84C13.88 15.935 15.47 15.395 16.61 14.315C17.75 13.235 18.32 11.765 18.32 9.905C18.32 8.105 17.78 6.68 16.7 5.63C15.62 4.55 14.06 4.01 12.02 4.01H4.01ZM27.6842 9.365H31.2842V13.64C32.3942 10.61 34.5842 9.095 37.8542 9.095H39.4742V12.605H38.0342C35.7542 12.605 34.0742 13.325 32.9942 14.765C31.9142 16.175 31.3742 18.14 31.3742 20.66V32H27.6842V9.365ZM63.1569 21.74H46.1469C46.2669 24.23 46.9569 26.105 48.2169 27.365C49.5069 28.595 51.1719 29.21 53.2119 29.21C54.5919 29.21 55.8219 28.895 56.9019 28.265C57.9819 27.605 58.7319 26.645 59.1519 25.385H62.7519C62.2419 27.755 61.0869 29.54 59.2869 30.74C57.5169 31.91 55.4469 32.495 53.0769 32.495C51.0969 32.495 49.2969 32.075 47.6769 31.235C46.0869 30.365 44.8119 29.06 43.8519 27.32C42.9219 25.55 42.4569 23.405 42.4569 20.885C42.4569 18.545 42.8919 16.475 43.7619 14.675C44.6619 12.845 45.9219 11.435 47.5419 10.445C49.1619 9.425 51.0369 8.915 53.1669 8.915C56.1369 8.915 58.5369 9.785 60.3669 11.525C62.2269 13.265 63.1569 15.935 63.1569 19.535V21.74ZM59.5119 18.725C59.4819 16.685 58.9569 15.095 57.9369 13.955C56.9469 12.785 55.3869 12.2 53.2569 12.2C51.2769 12.2 49.6869 12.8 48.4869 14C47.2869 15.17 46.5369 16.745 46.2369 18.725H59.5119ZM77.4507 28.31L84.7857 9.365H88.5657L79.2957 32H75.4707L66.1557 9.365H70.1157L77.4507 28.31ZM96.9877 4.775H92.9377V0.229999H96.9877V4.775ZM96.7627 32H93.1177V9.365H96.7627V32ZM113.598 8.915C115.728 8.915 117.618 9.395 119.268 10.355C120.948 11.285 122.253 12.65 123.183 14.45C124.113 16.22 124.578 18.305 124.578 20.705C124.578 23.105 124.113 25.205 123.183 27.005C122.253 28.775 120.963 30.14 119.313 31.1C117.663 32.03 115.773 32.495 113.643 32.495C111.513 32.495 109.608 32.03 107.928 31.1C106.278 30.14 104.973 28.775 104.013 27.005C103.083 25.205 102.618 23.105 102.618 20.705C102.618 18.305 103.083 16.22 104.013 14.45C104.943 12.65 106.233 11.285 107.883 10.355C109.563 9.395 111.468 8.915 113.598 8.915ZM113.553 12.38C111.423 12.38 109.698 13.13 108.378 14.63C107.058 16.1 106.398 18.155 106.398 20.795C106.398 22.475 106.713 23.93 107.343 25.16C108.003 26.39 108.873 27.335 109.953 27.995C111.063 28.655 112.293 28.985 113.643 28.985C115.803 28.985 117.528 28.25 118.818 26.78C120.138 25.31 120.798 23.255 120.798 20.615C120.798 18.935 120.483 17.48 119.853 16.25C119.223 14.99 118.353 14.03 117.243 13.37C116.133 12.71 114.903 12.38 113.553 12.38ZM149.147 32H145.547V27.815C144.827 29.315 143.822 30.47 142.532 31.28C141.242 32.09 139.697 32.495 137.897 32.495C135.527 32.495 133.652 31.805 132.272 30.425C130.922 29.045 130.247 27.14 130.247 24.71V9.365H133.937V24.215C133.937 25.865 134.387 27.125 135.287 27.995C136.187 28.865 137.372 29.3 138.842 29.3C140.822 29.3 142.427 28.55 143.657 27.05C144.887 25.52 145.502 23.615 145.502 21.335V9.365H149.147V32ZM169.445 15.8C169.235 14.54 168.635 13.595 167.645 12.965C166.655 12.335 165.365 12.02 163.775 12.02C162.275 12.02 161.105 12.335 160.265 12.965C159.425 13.595 159.005 14.435 159.005 15.485C159.005 16.325 159.245 16.985 159.725 17.465C160.235 17.915 160.88 18.245 161.66 18.455C162.44 18.665 163.535 18.89 164.945 19.13C166.955 19.49 168.53 19.85 169.67 20.21C170.84 20.57 171.8 21.17 172.55 22.01C173.33 22.82 173.72 23.975 173.72 25.475C173.72 27.755 172.88 29.495 171.2 30.695C169.52 31.895 167.42 32.495 164.9 32.495C162.29 32.495 160.01 31.865 158.06 30.605C156.14 29.315 155.06 27.47 154.82 25.07H158.69C158.96 26.54 159.665 27.635 160.805 28.355C161.975 29.045 163.37 29.39 164.99 29.39C166.49 29.39 167.705 29.105 168.635 28.535C169.595 27.935 170.075 27.065 170.075 25.925C170.075 25.145 169.835 24.545 169.355 24.125C168.875 23.675 168.26 23.345 167.51 23.135C166.76 22.895 165.695 22.655 164.315 22.415C162.245 22.025 160.61 21.635 159.41 21.245C158.24 20.855 157.265 20.24 156.485 19.4C155.735 18.56 155.36 17.39 155.36 15.89C155.36 13.64 156.17 11.915 157.79 10.715C159.44 9.515 161.54 8.915 164.09 8.915C166.64 8.915 168.74 9.515 170.39 10.715C172.04 11.915 172.97 13.61 173.18 15.8H169.445Z" fill="white"/>
</svg>
